HIERARCHY
ROOT Hips
{
  OFFSET 1.44925e-005 102.336 -0.101585
  CHANNELS 6 Xposition Yposition Zposition Zrotation Xrotation Yrotation
  JOINT RightUpLeg
  {
    OFFSET -8.9458 -8.66707 0.101652
    CHANNELS 3 Zrotation Xrotation Yrotation
    JOINT RightLeg
    {
      OFFSET 0 -44.4227 1.3727
      CHANNELS 3 Zrotation Xrotation Yrotation
      JOINT RightFoot
      {
        OFFSET 0.253549 -42.0924 -1.46059
        CHANNELS 3 Zrotation Xrotation Yrotation
        JOINT RightToes
        {
          OFFSET 0.04 -4.41509 8.4991
          CHANNELS 3 Zrotation Xrotation Yrotation
          End Site
          {
            OFFSET -0.08 -0.137448 9.77979
          }
        }
      }
    }
  }
  JOINT Spine
  {
    OFFSET 0 11.8905 0
    CHANNELS 3 Zrotation Xrotation Yrotation
    JOINT Spine1
    {
      OFFSET 0 25.6574 0.127663
      CHANNELS 3 Zrotation Xrotation Yrotation
      JOINT HEad
      {
        OFFSET 0 8.73416 0.011341
        CHANNELS 3 Zrotation Xrotation Yrotation
        End Site
        {
          OFFSET -0.29 12.7742 2.51395
        }
      }
      JOINT LeftShoulder1
      {
        OFFSET 8.99 -0.362252 -0.22
        CHANNELS 3 Zrotation Xrotation Yrotation
        JOINT LeftArm
        {
          OFFSET 10.2827 -0.00337999 0.322123
          CHANNELS 3 Zrotation Xrotation Yrotation
          JOINT LeftForeArm
          {
            OFFSET 26.2597 0.099144 -1.42434
            CHANNELS 3 Zrotation Xrotation Yrotation
            JOINT LeftHand
            {
              OFFSET 22.0902 0.085362 1.02216
              CHANNELS 3 Zrotation Xrotation Yrotation
              End Site
              {
                OFFSET 13.419 -0.6 1.50291
              }
            }
          }
        }
      }
      JOINT RightShoulder
      {
        OFFSET -8.99 -0.362252 -0.22
        CHANNELS 3 Zrotation Xrotation Yrotation
        JOINT RightArm
        {
          OFFSET -10.2827 -0.00338 0.322123
          CHANNELS 3 Zrotation Xrotation Yrotation
          JOINT RightForeArm
          {
            OFFSET -26.364 0.099144 -1.42434
            CHANNELS 3 Zrotation Xrotation Yrotation
            JOINT RightHand
            {
              OFFSET -22.0324 0.085362 1.02216
              CHANNELS 3 Zrotation Xrotation Yrotation
              End Site
              {
                OFFSET -13.3284 -0.6 1.50291
              }
            }
          }
        }
      }
    }
  }
  JOINT LeftUpLeg
  {
    OFFSET 8.9458 -8.66707 0.101652
    CHANNELS 3 Zrotation Xrotation Yrotation
    JOINT LeftLeg
    {
      OFFSET 0 -44.4227 1.3727
      CHANNELS 3 Zrotation Xrotation Yrotation
      JOINT LeftFoot
      {
        OFFSET -0.253549 -42.0924 -1.46059
        CHANNELS 3 Zrotation Xrotation Yrotation
        JOINT LeftToes
        {
          OFFSET -0.04 -4.41509 8.4991
          CHANNELS 3 Zrotation Xrotation Yrotation
          End Site
          {
            OFFSET 0.08 -0.047448 9.77979
          }
        }
      }
    }
  }
}
MOTION
Frames:	12
Frame Time:	0.0333333
-3.74701 106.426 18.4804 0.988085 5.61003 179.837 -6.91814 8.27727 -7.42488 1.5539 10.1112 -16.9289 9.93053 -8.9362 -0.068188 0.0462048 0.000530889 0.662642 -0.255563 -4.76459 -0.640923 2.29243 10.967 -1.39291 -2.02575 2.5186 0.0835703 -28.3999 1.52113 -0.904698 -52.6609 -18.2264 -16.7594 -11.2517 32.7074 0.173499 2.80388 9.77265 -1.52462 37.9448 5.68888 8.86317 33.146 -34.5183 0.200576 4.96732 31.9351 6.10065 -23.1097 9.22446 -1.96642 10.5662 5.1406 7.91024 -3.34694 12.3308 7.41524 -9.23494 -7.59334 0.0355096 -1.42503e-009 8.75253e-006 -1.46865e-008 
-3.74701 106.437 18.4972 0.988693 5.61355 179.837 -6.90911 8.28714 -7.41458 1.54639 10.088 -17.0185 9.80552 -8.89811 -0.0726532 0.0462048 0.000530889 0.662642 -0.340687 -4.82405 -0.651051 2.38804 11.0259 -1.4296 -2.11896 2.39852 -0.0607514 -28.3889 1.51287 -0.882128 -52.688 -18.2564 -16.7742 -11.2704 32.9297 0.313467 2.57398 9.78255 -1.79251 37.9747 5.68483 8.84541 33.1416 -34.588 0.235965 4.90896 32.0676 6.13642 -22.918 9.20575 -1.83784 10.5569 5.09325 7.91205 -3.33975 12.3903 7.39864 -9.06906 -7.64941 0.0312917 -1.42503e-009 8.75253e-006 -1.46865e-008 
-3.74684 106.447 18.5336 0.99645 5.63512 179.837 -6.88742 8.31582 -7.39808 1.54307 10.0501 -17.1402 9.65864 -8.84145 -0.0787428 0.0462048 0.000530889 0.662642 -0.435547 -4.84697 -0.654261 2.53793 11.0256 -1.47545 -2.26269 2.2657 -0.25478 -28.4363 1.49885 -0.835721 -52.6342 -18.2993 -16.748 -11.2935 33.3017 0.424319 2.40611 9.79265 -1.81526 38.0245 5.6714 8.80092 33.1093 -34.7342 0.214193 4.79012 32.1975 6.25409 -22.5513 9.19634 -1.72609 10.5604 5.02719 7.92732 -3.32839 12.4993 7.36409 -8.87934 -7.76758 0.0226659 -1.42503e-009 8.75253e-006 -1.46865e-008 
-3.74571 106.45 18.573 1.02118 5.68353 179.836 -6.85389 8.37685 -7.37252 1.53829 9.98992 -17.2012 9.62452 -8.79012 -0.0831359 0.0462048 0.000530889 0.662642 -0.446164 -4.81901 -0.642184 2.64916 10.9755 -1.49858 -2.39614 2.24589 -0.31124 -28.5674 1.47892 -0.762253 -52.4757 -18.3393 -16.6938 -11.2933 33.5806 0.3846 2.48379 9.79256 -1.45135 38.0074 5.64543 8.74757 33.1257 -34.8668 0.120094 4.67929 32.1775 6.40662 -22.3306 9.19238 -1.66598 10.5871 5.01381 7.9517 -3.32122 12.5782 7.31848 -8.81058 -7.8466 0.0173421 -1.42503e-009 8.75253e-006 -1.46865e-008 
-3.74697 106.454 18.6031 1.04238 5.72729 179.839 -6.8204 8.44191 -7.33947 1.52091 9.90741 -17.2157 9.66785 -8.74024 -0.0866139 0.0462048 0.000530889 0.662642 -0.396606 -4.86631 -0.630083 2.70248 11.0129 -1.50772 -2.47924 2.32984 -0.226909 -28.68 1.45907 -0.691678 -52.3457 -18.3743 -16.6668 -11.2681 33.5899 0.289814 2.63452 9.78657 -1.24008 37.9148 5.62363 8.7252 33.1941 -34.8787 0.0132158 4.65829 32.0511 6.48027 -22.4279 9.1733 -1.58134 10.612 5.04092 7.96054 -3.31652 12.581 7.28562 -8.83209 -7.82181 0.0191209 -1.42503e-009 8.75253e-006 -1.46865e-008 
-3.75339 106.461 18.6339 1.03637 5.73565 179.856 -6.81645 8.45815 -7.32839 1.50992 9.84795 -17.2303 9.67444 -8.6896 -0.090682 0.0462048 0.000530889 0.662642 -0.352436 -5.01938 -0.623955 2.72049 11.1372 -1.50938 -2.47797 2.4444 -0.153345 -28.6634 1.45362 -0.678019 -52.3379 -18.3956 -16.6574 -11.2344 33.388 0.226934 2.70144 9.77917 -1.49016 37.8551 5.62917 8.75481 33.1859 -34.8078 -0.105718 4.71358 31.9322 6.43392 -22.6327 9.14598 -1.47335 10.6006 5.04388 7.94155 -3.31145 12.5391 7.3007 -8.86037 -7.75392 0.0232032 -1.42503e-009 8.75253e-006 -1.46865e-008 
-3.76525 106.468 18.6827 1.0078 5.73283 179.86 -6.85457 8.42551 -7.35531 1.51108 9.84726 -17.2231 9.63024 -8.65545 -0.0936101 0.0462048 0.000530889 0.662642 -0.30529 -5.14086 -0.607413 2.68502 11.2157 -1.48169 -2.3976 2.53506 -0.174827 -28.5325 1.46485 -0.725852 -52.386 -18.3948 -16.6206 -11.1936 33.1967 0.131203 2.73938 9.77085 -1.89092 37.8966 5.65645 8.80423 33.0505 -34.8038 -0.263659 4.73941 31.8666 6.36992 -22.6739 9.13745 -1.43599 10.5552 5.02293 7.91258 -3.3124 12.5061 7.36459 -8.87257 -7.72622 0.025998 -1.42503e-009 8.75253e-006 -1.46865e-008 
-3.78145 106.471 18.7474 0.985728 5.76369 179.827 -6.89967 8.39771 -7.38161 1.50924 9.87888 -17.166 9.61813 -8.64662 -0.0948373 0.0462048 0.000530889 0.662642 -0.204373 -5.13574 -0.574345 2.56407 11.2133 -1.41837 -2.28493 2.56239 -0.240147 -28.3846 1.47912 -0.784897 -52.3869 -18.3682 -16.5624 -11.1468 33.0992 -0.061908 2.84234 9.76064 -2.1284 37.98 5.67152 8.81404 32.9016 -34.8797 -0.402149 4.70024 31.8395 6.39926 -22.5704 9.16515 -1.56375 10.5187 5.0318 7.89638 -3.32205 12.4954 7.431 -8.90377 -7.72816 0.0270253 -1.42503e-009 8.75253e-006 -1.46865e-008 
-3.79876 106.472 18.8153 0.98476 5.82441 179.782 -6.91703 8.39604 -7.37414 1.49005 9.9065 -17.1046 9.65682 -8.6388 -0.0966467 0.0462048 0.000530889 0.662642 -0.0655357 -5.06068 -0.544515 2.40435 11.2008 -1.35581 -2.1722 2.49639 -0.304522 -28.2833 1.49019 -0.829389 -52.324 -18.3008 -16.5178 -11.1299 32.9885 -0.275852 2.96722 9.75046 -2.25242 38.0259 5.65519 8.76416 32.8236 -34.8899 -0.440346 4.68295 31.837 6.48051 -22.5079 9.21871 -1.83752 10.5138 5.06757 7.89085 -3.32978 12.4955 7.47033 -8.97065 -7.71453 0.0274605 -1.42503e-009 8.75253e-006 -1.46865e-008 
-3.81755 106.474 18.8863 0.983375 5.87774 179.762 -6.93237 8.39194 -7.36951 1.47951 9.92943 -17.076 9.66895 -8.60615 -0.0986736 0.0462048 0.000530889 0.662642 0.0336578 -4.9839 -0.531463 2.30334 11.1871 -1.32501 -2.05251 2.36552 -0.386118 -28.24 1.50484 -0.877312 -52.2342 -18.1923 -16.5015 -11.173 32.8679 -0.405018 3.0031 9.74753 -2.28549 38.0277 5.62762 8.70181 32.7657 -34.8128 -0.419675 4.72078 31.8742 6.5062 -22.5584 9.25911 -2.061 10.5014 5.08075 7.87523 -3.32699 12.4971 7.50803 -9.02195 -7.69225 0.02806 -1.42503e-009 8.75253e-006 -1.46865e-008 
-3.83753 106.479 18.9677 0.960748 5.91791 179.765 -6.97786 8.37946 -7.40277 1.49301 9.94351 -17.0463 9.62241 -8.56421 -0.101071 0.0462048 0.000530889 0.662642 0.0512934 -4.92133 -0.529314 2.30108 11.167 -1.32248 -1.93121 2.25076 -0.476536 -28.2512 1.51953 -0.918637 -52.1641 -18.1087 -16.5454 -11.2298 32.8837 -0.440516 2.88577 9.75788 -2.12332 38.0037 5.61924 8.68986 32.6923 -34.7889 -0.430076 4.72374 31.9843 6.50218 -22.6882 9.25316 -2.05007 10.4482 5.06871 7.83866 -3.3177 12.4959 7.55777 -8.9974 -7.67431 0.0295805 -1.42503e-009 8.75253e-006 -1.46865e-008 
-3.85257 106.487 19.054 0.93632 5.96681 179.777 -7.01436 8.39544 -7.42946 1.49905 9.91164 -17.0166 9.58179 -8.5279 -0.103971 0.0462048 0.000530889 0.662642 0.0123898 -4.90519 -0.53984 2.36425 11.2299 -1.34633 -1.85282 2.19925 -0.532805 -28.2946 1.51787 -0.908391 -52.1678 -18.1212 -16.688 -11.2278 32.9416 -0.422506 2.68952 9.77364 -1.91532 37.9603 5.63251 8.7321 32.6496 -34.8044 -0.42994 4.68534 32.1377 6.54736 -22.886 9.2212 -1.91354 10.3996 5.07172 7.80177 -3.3095 12.476 7.57371 -8.93705 -7.6243 0.032977 -1.42503e-009 8.75253e-006 -1.46865e-008 
